<?xml version="1.0" encoding="iso-8859-1"?>
<!-- Generator: Adobe Illustrator 16.0.0, SVG Export Plug-In . SVG Version: 6.00 Build 0)  -->
<!DOCTYPE svg PUBLIC "-//W3C//DTD SVG 1.1//EN" "http://www.w3.org/Graphics/SVG/1.1/DTD/svg11.dtd">
<svg version="1.1" id="Capa_1" xmlns="http://www.w3.org/2000/svg" xmlns:xlink="http://www.w3.org/1999/xlink" x="0px" y="0px"
	 width="446.604px" height="446.603px" viewBox="0 0 446.604 446.603" style="enable-background:new 0 0 446.604 446.603;"
	 xml:space="preserve">
<g>
	<g>
		<path d="M317.16,0H129.443c-16.709,0-30.305,13.596-30.305,30.305v385.987c0,16.707,13.596,30.311,30.305,30.311H317.16
			c16.712,0,30.306-13.604,30.306-30.311V30.305C347.466,13.596,333.872,0,317.16,0z M335.619,416.297
			c0,10.182-8.272,18.464-18.459,18.464H129.443c-10.168,0-18.456-8.282-18.456-18.464V30.305c0-10.168,8.287-18.456,18.456-18.456
			H317.16c10.187,0,18.459,8.287,18.459,18.456V416.297L335.619,416.297z"/>
		<path d="M320.934,49.287H125.683c-1.635,0-2.963,1.328-2.963,2.963v338.856c0,1.635,1.328,2.96,2.963,2.96h195.251
			c1.635,0,2.96-1.325,2.96-2.96V52.25C323.894,50.615,322.568,49.287,320.934,49.287z M310.066,388.14H136.544
			c-4.359,0-7.899-3.534-7.899-7.896V63.114c0-4.362,3.54-7.901,7.899-7.901h173.522c4.362,0,7.901,3.54,7.901,7.901v317.129
			C317.968,384.606,314.429,388.14,310.066,388.14z"/>
		<path d="M206.641,31.237h33.329c1.636,0,2.966-1.328,2.966-2.963c0-1.635-1.33-2.963-2.966-2.963h-33.329
			c-1.635,0-2.963,1.328-2.963,2.963C203.678,29.91,205.006,31.237,206.641,31.237z"/>
		<path d="M240.366,400.845h-34.129c-7.005,0-12.71,5.703-12.71,12.705v2.036c0,7.008,5.713,12.716,12.71,12.716h34.129
			c7.008,0,12.71-5.713,12.71-12.716v-2.036C253.087,406.542,247.374,400.845,240.366,400.845z M247.161,415.586
			c0,3.748-3.042,6.789-6.785,6.789h-34.129c-3.737,0-6.787-3.052-6.787-6.789v-2.036c0-3.737,3.057-6.779,6.787-6.779h34.129
			c3.753,0,6.785,3.052,6.785,6.779V415.586z"/>
		<path d="M201.436,241.692c1.16,0,2.328-0.519,3.113-1.514c1.343-1.717,1.049-4.205-0.673-5.55l-29.412-23.075
			c-3.428-2.694-3.136-6.612,0.665-8.752l28.241-15.935c1.904-1.074,2.575-3.476,1.5-5.38c-1.082-1.912-3.514-2.574-5.38-1.5
			l-40.281,22.711c-1.152,0.647-1.904,1.825-2.006,3.138c-0.096,1.318,0.465,2.597,1.501,3.413l40.281,31.6
			C199.722,241.417,200.573,241.692,201.436,241.692z"/>
		<path d="M274.354,202.802c3.798,2.14,4.098,6.066,0.66,8.759l-29.407,23.077c-1.727,1.341-2.016,3.834-0.675,5.545
			c0.782,0.995,1.944,1.519,3.112,1.519c0.854,0,1.717-0.279,2.442-0.838l40.284-31.601c1.041-0.814,1.594-2.094,1.498-3.412
			c-0.102-1.32-0.854-2.488-2.006-3.138l-40.284-22.711c-1.868-1.074-4.301-0.411-5.377,1.501c-1.077,1.904-0.401,4.306,1.508,5.38
			L274.354,202.802z"/>
		<path d="M214.715,266.309c0.254,0.046,0.516,0.071,0.759,0.071c1.848,0,3.506-1.32,3.869-3.209l18.763-97.761
			c0.411-2.14-0.995-4.209-3.128-4.628c-2.173-0.419-4.22,0.987-4.631,3.136l-18.761,97.761
			C211.176,263.832,212.582,265.898,214.715,266.309z"/>
	</g>
</g>
<g>
</g>
<g>
</g>
<g>
</g>
<g>
</g>
<g>
</g>
<g>
</g>
<g>
</g>
<g>
</g>
<g>
</g>
<g>
</g>
<g>
</g>
<g>
</g>
<g>
</g>
<g>
</g>
<g>
</g>
</svg>
